HIERARCHY
ROOT Hips
{
	OFFSET 0.000000 71.427986 0.000000
	CHANNELS 6 Xposition Yposition Zposition Xrotation Yrotation Zrotation
	JOINT Pelvis
	{
		OFFSET 0.000000 0.000000 0.000000
		CHANNELS 3 Xrotation Yrotation Zrotation
		JOINT LeftUpLeg
		{
			OFFSET 6.797100 -2.508499 -1.318700
			CHANNELS 3 Xrotation Yrotation Zrotation
			JOINT LeftLeg
			{
				OFFSET 0.069008 -29.241863 0.690200
				CHANNELS 3 Xrotation Yrotation Zrotation
				JOINT LeftFoot
				{
					OFFSET -0.069008 -29.568123 -0.266800
					CHANNELS 3 Xrotation Yrotation Zrotation
					JOINT LeftToeBase
					{
						OFFSET 3.145500 -8.631000 16.059900
						CHANNELS 3 Xrotation Yrotation Zrotation
						End Site
						{
							OFFSET 0.000000 18.501587 0.000000
						}
					}
				}
			}
			JOINT Left_ShortSleeve
			{
				OFFSET 0.265923 -10.480953 1.153800
				CHANNELS 3 Xrotation Yrotation Zrotation
				End Site
				{
					OFFSET 1.725763 19.823879 0.000000
				}
			}
		}
		JOINT RightUpLeg
		{
			OFFSET -6.797100 -2.508499 -1.318700
			CHANNELS 3 Xrotation Yrotation Zrotation
			JOINT RightLeg
			{
				OFFSET -0.082453 -29.241932 0.688000
				CHANNELS 3 Xrotation Yrotation Zrotation
				JOINT RightFoot
				{
					OFFSET 0.082453 -29.568058 -0.264600
					CHANNELS 3 Xrotation Yrotation Zrotation
					JOINT RightToeBase
					{
						OFFSET -3.115300 -8.682800 16.113400
						CHANNELS 3 Xrotation Yrotation Zrotation
						End Site
						{
							OFFSET 0.000000 18.567114 0.000000
						}
					}
				}
			}
			JOINT Right_ShortSleeve
			{
				OFFSET -0.265923 -10.480953 1.153800
				CHANNELS 3 Xrotation Yrotation Zrotation
				End Site
				{
					OFFSET -1.725766 19.823910 0.000000
				}
			}
		}
	}
	JOINT Spine
	{
		OFFSET 0.000000 13.368103 0.470500
		CHANNELS 3 Xrotation Yrotation Zrotation
		JOINT Spine1
		{
			OFFSET 0.147000 13.837402 0.538800
			CHANNELS 3 Xrotation Yrotation Zrotation
			JOINT Spine2
			{
				OFFSET 0.168000 16.242897 -1.435500
				CHANNELS 3 Xrotation Yrotation Zrotation
				JOINT Neck
				{
					OFFSET 0.217200 18.631500 -1.679100
					CHANNELS 3 Xrotation Yrotation Zrotation
					JOINT Head
					{
						OFFSET 0.000000 6.599396 1.385900
						CHANNELS 3 Xrotation Yrotation Zrotation
						JOINT Hat
						{
							OFFSET -0.532200 27.220596 -10.096100
							CHANNELS 3 Xrotation Yrotation Zrotation
							End Site
							{
								OFFSET 0.000000 22.029861 0.000000
							}
						}
						JOINT HairD
						{
							OFFSET -10.777400 17.437393 -1.325900
							CHANNELS 3 Xrotation Yrotation Zrotation
							JOINT HairD1
							{
								OFFSET -3.290299 -11.051193 1.062200
								CHANNELS 3 Xrotation Yrotation Zrotation
								End Site
								{
									OFFSET 0.000000 11.579437 0.000000
								}
							}
						}
						JOINT HairB
						{
							OFFSET -10.777400 17.437393 1.467900
							CHANNELS 3 Xrotation Yrotation Zrotation
							JOINT HairB1
							{
								OFFSET -1.561200 -12.956299 3.590200
								CHANNELS 3 Xrotation Yrotation Zrotation
								End Site
								{
									OFFSET 0.000000 13.534866 0.000000
								}
							}
						}
						JOINT HairA
						{
							OFFSET 9.713100 17.437393 1.467900
							CHANNELS 3 Xrotation Yrotation Zrotation
							JOINT HairA1
							{
								OFFSET 1.561200 -12.956299 3.590200
								CHANNELS 3 Xrotation Yrotation Zrotation
								End Site
								{
									OFFSET 0.000000 13.534866 0.000000
								}
							}
						}
						JOINT HairC
						{
							OFFSET 9.713100 17.437393 -1.325900
							CHANNELS 3 Xrotation Yrotation Zrotation
							JOINT HairC1
							{
								OFFSET 3.290300 -11.051193 1.062200
								CHANNELS 3 Xrotation Yrotation Zrotation
								End Site
								{
									OFFSET 0.000000 11.579437 0.000000
								}
							}
						}
					}
				}
				JOINT LeftShoulder
				{
					OFFSET 5.101800 15.108002 -2.763700
					CHANNELS 3 Xrotation Yrotation Zrotation
					JOINT LeftArm
					{
						OFFSET 9.825497 2.506317 -1.597400
						CHANNELS 3 Xrotation Yrotation Zrotation
						JOINT LeftForeArm
						{
							OFFSET 21.966244 0.000000 0.000000
							CHANNELS 3 Xrotation Yrotation Zrotation
							JOINT LeftHand
							{
								OFFSET 33.879036 0.000000 0.000000
								CHANNELS 3 Xrotation Yrotation Zrotation
								JOINT LeftHandThumb1
								{
									OFFSET 6.715286 -2.359680 3.363841
									CHANNELS 3 Xrotation Yrotation Zrotation
									JOINT LeftHandThumb2
									{
										OFFSET 2.507072 -1.447464 1.447461
										CHANNELS 3 Xrotation Yrotation Zrotation
										JOINT LeftHandThumb3
										{
											OFFSET 2.898338 -1.673355 1.673357
											CHANNELS 3 Xrotation Yrotation Zrotation
											End Site
											{
												OFFSET -0.295959 3.727692 -0.131651
											}
										}
									}
								}
								JOINT LeftHandIndex1
								{
									OFFSET 14.190811 -0.254547 3.840278
									CHANNELS 3 Xrotation Yrotation Zrotation
									JOINT LeftHandIndex2
									{
										OFFSET 3.551727 0.000000 -0.000000
										CHANNELS 3 Xrotation Yrotation Zrotation
										JOINT LeftHandIndex3
										{
											OFFSET 2.894196 0.000000 0.000000
											CHANNELS 3 Xrotation Yrotation Zrotation
											End Site
											{
												OFFSET -1.000603 2.690872 0.366626
											}
										}
									}
								}
								JOINT LeftHandMiddle1
								{
									OFFSET 13.776489 0.000000 0.000000
									CHANNELS 3 Xrotation Yrotation Zrotation
									JOINT LeftHandMiddle2
									{
										OFFSET 3.438232 0.000000 0.000000
										CHANNELS 3 Xrotation Yrotation Zrotation
										JOINT LeftHandMiddle3
										{
											OFFSET 3.691551 0.000000 0.000000
											CHANNELS 3 Xrotation Yrotation Zrotation
											End Site
											{
												OFFSET -1.082298 3.499527 0.457670
											}
										}
									}
								}
								JOINT LeftHandRing1
								{
									OFFSET 13.966164 -0.268127 -3.067488
									CHANNELS 3 Xrotation Yrotation Zrotation
									JOINT LeftHandRing2
									{
										OFFSET 3.162567 0.000000 0.000000
										CHANNELS 3 Xrotation Yrotation Zrotation
										JOINT LeftHandRing3
										{
											OFFSET 3.324348 0.000000 0.000000
											CHANNELS 3 Xrotation Yrotation Zrotation
											End Site
											{
												OFFSET -0.861900 3.184998 0.405154
											}
										}
									}
								}
								JOINT LeftHandPinky1
								{
									OFFSET 13.131393 -0.168503 -5.746925
									CHANNELS 3 Xrotation Yrotation Zrotation
									JOINT LeftHandPinky2
									{
										OFFSET 2.849182 0.000000 0.000000
										CHANNELS 3 Xrotation Yrotation Zrotation
										JOINT LeftHandPinky3
										{
											OFFSET 2.805038 0.000000 0.000000
											CHANNELS 3 Xrotation Yrotation Zrotation
											End Site
											{
												OFFSET -0.882500 2.642609 0.325652
											}
										}
									}
								}
							}
							JOINT Left_Sleeve
							{
								OFFSET 6.592125 -0.646545 0.805568
								CHANNELS 3 Xrotation Yrotation Zrotation
								End Site
								{
									OFFSET -0.000179 20.275787 -0.000000
								}
							}
						}
					}
				}
				JOINT RightShoulder
				{
					OFFSET -5.731700 15.108002 -2.763700
					CHANNELS 3 Xrotation Yrotation Zrotation
					JOINT RightArm
					{
						OFFSET -9.825497 2.506317 -1.597400
						CHANNELS 3 Xrotation Yrotation Zrotation
						JOINT RightForeArm
						{
							OFFSET -21.966242 0.000000 0.000000
							CHANNELS 3 Xrotation Yrotation Zrotation
							JOINT RightHand
							{
								OFFSET -33.879032 0.000000 0.000000
								CHANNELS 3 Xrotation Yrotation Zrotation
								JOINT RightHandThumb1
								{
									OFFSET -6.715286 -2.359680 3.363841
									CHANNELS 3 Xrotation Yrotation Zrotation
									JOINT RightHandThumb2
									{
										OFFSET -2.507072 -1.447464 1.447461
										CHANNELS 3 Xrotation Yrotation Zrotation
										JOINT RightHandThumb3
										{
											OFFSET -2.898338 -1.673355 1.673357
											CHANNELS 3 Xrotation Yrotation Zrotation
											End Site
											{
												OFFSET 0.295959 3.727692 -0.131651
											}
										}
									}
								}
								JOINT RightHandIndex1
								{
									OFFSET -14.190811 -0.254547 3.840278
									CHANNELS 3 Xrotation Yrotation Zrotation
									JOINT RightHandIndex2
									{
										OFFSET -3.551727 0.000000 -0.000000
										CHANNELS 3 Xrotation Yrotation Zrotation
										JOINT RightHandIndex3
										{
											OFFSET -2.894196 0.000000 0.000000
											CHANNELS 3 Xrotation Yrotation Zrotation
											End Site
											{
												OFFSET 1.000603 2.690872 0.366626
											}
										}
									}
								}
								JOINT RightHandMiddle1
								{
									OFFSET -13.776489 0.000000 0.000000
									CHANNELS 3 Xrotation Yrotation Zrotation
									JOINT RightHandMiddle2
									{
										OFFSET -3.438232 0.000000 0.000000
										CHANNELS 3 Xrotation Yrotation Zrotation
										JOINT RightHandMiddle3
										{
											OFFSET -3.691551 0.000000 0.000000
											CHANNELS 3 Xrotation Yrotation Zrotation
											End Site
											{
												OFFSET 1.082298 3.499527 0.457670
											}
										}
									}
								}
								JOINT RightHandRing1
								{
									OFFSET -13.966164 -0.268127 -3.067488
									CHANNELS 3 Xrotation Yrotation Zrotation
									JOINT RightHandRing2
									{
										OFFSET -3.162567 0.000000 0.000000
										CHANNELS 3 Xrotation Yrotation Zrotation
										JOINT RightHandRing3
										{
											OFFSET -3.324348 0.000000 0.000000
											CHANNELS 3 Xrotation Yrotation Zrotation
											End Site
											{
												OFFSET 0.861900 3.184998 0.405154
											}
										}
									}
								}
								JOINT RightHandPinky1
								{
									OFFSET -13.131393 -0.168503 -5.746925
									CHANNELS 3 Xrotation Yrotation Zrotation
									JOINT RightHandPinky2
									{
										OFFSET -2.849182 0.000000 0.000000
										CHANNELS 3 Xrotation Yrotation Zrotation
										JOINT RightHandPinky3
										{
											OFFSET -2.805038 0.000000 0.000000
											CHANNELS 3 Xrotation Yrotation Zrotation
											End Site
											{
												OFFSET 0.882500 2.642609 0.325652
											}
										}
									}
								}
							}
							JOINT Right_Sleeve
							{
								OFFSET -6.592125 -0.646545 0.805568
								CHANNELS 3 Xrotation Yrotation Zrotation
								End Site
								{
									OFFSET 0.000179 20.275787 -0.000000
								}
							}
						}
					}
				}
				JOINT Bind_Right_JacketString
				{
					OFFSET -3.534800 11.969597 7.200700
					CHANNELS 3 Xrotation Yrotation Zrotation
					JOINT Bind_Right_JacketString1
					{
						OFFSET -0.319900 -6.102600 2.794100
						CHANNELS 3 Xrotation Yrotation Zrotation
						End Site
						{
							OFFSET 0.000000 6.719452 0.000000
						}
					}
				}
				JOINT Bind_Left_JacketString
				{
					OFFSET 2.904800 11.969597 7.200700
					CHANNELS 3 Xrotation Yrotation Zrotation
					JOINT Bind_Left_JacketString1
					{
						OFFSET 0.364800 -5.904503 3.186800
						CHANNELS 3 Xrotation Yrotation Zrotation
						End Site
						{
							OFFSET 0.000000 6.719513 0.000000
						}
					}
				}
				JOINT HairE
				{
					OFFSET 5.915200 17.612701 -11.592200
					CHANNELS 3 Xrotation Yrotation Zrotation
					JOINT HairE1
					{
						OFFSET 0.289200 -7.171898 -1.284500
						CHANNELS 3 Xrotation Yrotation Zrotation
						End Site
						{
							OFFSET 0.000000 7.291756 0.000000
						}
					}
				}
				JOINT HairF
				{
					OFFSET -0.864800 17.612701 -11.592200
					CHANNELS 3 Xrotation Yrotation Zrotation
					JOINT HairF1
					{
						OFFSET 0.000000 -14.087097 -2.127501
						CHANNELS 3 Xrotation Yrotation Zrotation
						End Site
						{
							OFFSET 0.000000 14.246841 0.000000
						}
					}
				}
				JOINT HairG
				{
					OFFSET -8.087700 17.612701 -11.592200
					CHANNELS 3 Xrotation Yrotation Zrotation
					JOINT HairG1
					{
						OFFSET -0.293600 -6.081398 -0.910100
						CHANNELS 3 Xrotation Yrotation Zrotation
						End Site
						{
							OFFSET 0.000000 6.156120 0.000000
						}
					}
				}
			}
		}
	}
	JOINT Pouch
	{
		OFFSET 0.000000 4.394501 10.847300
		CHANNELS 3 Xrotation Yrotation Zrotation
		End Site
		{
			OFFSET 0.000000 21.880577 0.000000
		}
	}
	JOINT Bag
	{
		OFFSET -13.229000 4.813004 -0.593300
		CHANNELS 3 Xrotation Yrotation Zrotation
		End Site
		{
			OFFSET 0.000000 21.880577 0.000000
		}
	}
	JOINT OccupyGuyFacialAnim_Joint
	{
		OFFSET 1.000000 -70.206398 -1.655000
		CHANNELS 3 Xrotation Yrotation Zrotation
		End Site
		{
			OFFSET 0.000000 21.880577 0.000000
		}
	}
}
MOTION
Frames: 4
Frame Time: 0.033333
0.069496 61.916580 1.307217 14.684563 3.138794 -0.267068 -0.000000 -0.000000 -0.000000 -65.407230 -6.307036 -2.012902 82.603399 -9.611901 0.126601 -5.249879 -1.188658 -4.398654 0.000002 0.000001 -0.000000 0.000002 -0.000000 -0.000000 -50.633801 0.316917 5.849138 68.189030 -10.069876 -4.080241 -26.286543 -2.130568 2.992257 -0.000000 -0.000000 -0.000000 0.000002 -0.000001 -0.000002 2.901075 -0.903527 2.760911 3.107722 -18.543542 2.178320 3.330277 -8.139909 4.467343 6.289642 5.421252 -4.908955 -11.393623 17.889731 5.359091 0.000001 -0.000000 -0.000000 0.000001 -0.000000 -0.000000 0.000001 -0.000000 -0.000000 0.000001 -0.000000 -0.000000 -0.000000 0.000000 -0.000000 0.000001 -0.000000 -0.000000 -0.000000 0.000000 -0.000000 0.000001 -0.000000 -0.000000 0.000001 -0.000000 -0.000000 3.544249 4.756007 -11.623017 -54.038858 -33.116452 -50.381572 0.000022 -81.882343 0.000007 -58.768382 25.992614 38.870323 -14.557466 10.837961 12.229956 0.749532 -4.257956 13.305483 -0.000002 -0.000000 0.000000 -0.809533 2.578177 -31.496434 3.095882 5.163760 -61.866972 0.000003 0.000001 -0.000000 -2.430846 1.729232 -41.460928 2.952362 5.084716 -60.259925 0.000001 -0.000001 0.000001 -6.054128 -0.166610 -49.857577 3.046250 5.137038 -61.313952 -0.000002 0.000001 0.000002 -8.298305 -6.522639 -38.520160 2.848775 5.024385 -59.084415 -0.000001 0.000001 -0.000001 -0.000001 0.000000 -0.000000 -14.733695 2.115960 -4.463088 72.337543 138.834045 -52.653505 -0.000011 29.080719 0.000019 -49.752454 -7.371284 -31.498746 8.377134 -4.904149 11.021985 21.620204 -18.183907 -18.379225 0.000002 0.000000 0.000002 0.558932 -4.406599 25.436664 1.653028 -3.560340 49.799083 -0.000000 -0.000000 0.000000 10.969826 -12.875586 52.800812 6.387594 -4.324407 111.833686 0.000001 0.000002 0.000001 3.705081 -7.151297 57.622433 5.328199 -4.608677 98.293450 0.000001 0.000000 -0.000003 0.474824 -5.172995 58.987665 3.194317 -4.421947 71.674175 -0.000000 0.000001 0.000001 0.000001 0.000001 -0.000000 0.000000 -0.000003 0.000000 -0.000001 -0.000001 -0.000000 0.000000 -0.000003 0.000000 0.000000 -0.000003 0.000000 0.000000 -0.000003 0.000000 -0.000001 -0.000001 0.000000 0.000000 -0.000003 0.000000 0.000000 -0.000003 0.000000 0.000000 -0.000003 0.000000 -0.000001 -0.000001 0.000000 -0.000000 -0.000000 -0.000000 -0.000000 -0.000000 -0.000000 -0.000000 -0.000000 -0.000000 
0.280342 61.042999 -5.788617 12.740292 -0.287240 -0.188608 -0.000001 0.000000 0.000000 -56.709654 -4.964904 1.374736 94.878158 -10.073343 -0.258989 -4.107242 -3.702087 -9.077469 -0.000000 -0.000001 0.000000 0.000002 0.000000 0.000000 -53.203513 0.839958 6.268290 63.426346 -4.900463 -3.911080 -23.072259 -0.536480 1.536729 -0.000000 -0.000000 0.000000 0.000002 0.000001 -0.000001 3.232727 -0.623197 2.832603 3.399078 -18.237273 2.338885 3.592187 -7.829027 4.621209 6.791429 5.766048 -4.899769 -10.684618 19.966149 4.756885 0.000000 0.000000 0.000000 0.000000 0.000000 0.000000 0.000000 0.000000 0.000001 0.000000 0.000000 0.000000 0.000000 0.000000 0.000000 0.000000 0.000000 0.000000 0.000000 0.000000 0.000000 0.000000 0.000000 0.000000 0.000000 0.000000 0.000000 4.126132 5.627123 -11.026604 -52.722316 -30.497922 -50.641932 -0.000123 -83.438165 -0.000125 -59.339317 24.896658 38.886944 -14.557471 10.837963 12.229957 0.749527 -4.257958 13.305483 -0.000001 -0.000003 -0.000001 -0.809533 2.578177 -31.496437 3.095881 5.163759 -61.866972 0.000002 0.000001 -0.000000 -2.430845 1.729229 -41.460928 2.952362 5.084717 -60.259938 -0.000000 -0.000000 0.000001 -6.054128 -0.166610 -49.857581 3.046248 5.137039 -61.313952 -0.000002 -0.000003 0.000001 -8.298308 -6.522636 -38.520160 2.848776 5.024385 -59.084408 0.000000 -0.000001 0.000003 0.000001 -0.000000 -0.000002 -15.294055 9.845344 -3.402281 81.824430 135.222214 -61.254161 0.000005 35.442651 0.000006 -48.413064 -10.474885 -35.153143 8.377133 -4.904147 11.021984 21.620204 -18.183910 -18.379225 0.000000 -0.000002 -0.000000 0.558933 -4.406599 25.436666 1.653028 -3.560340 49.799080 -0.000001 -0.000001 0.000004 10.969826 -12.875585 52.800815 6.387595 -4.324408 111.833686 0.000000 0.000000 -0.000001 3.705083 -7.151298 57.622440 5.328200 -4.608674 98.293450 -0.000000 0.000000 -0.000002 0.474825 -5.172994 58.987658 3.194315 -4.421949 71.674175 0.000000 0.000001 -0.000001 0.000001 -0.000003 -0.000001 0.000001 -0.000001 0.000000 0.000003 0.000001 -0.000001 0.000001 -0.000001 0.000000 0.000001 -0.000001 0.000000 0.000001 -0.000001 0.000000 0.000003 0.000001 -0.000000 0.000001 -0.000001 0.000000 0.000001 -0.000001 0.000000 0.000001 -0.000001 0.000000 0.000003 0.000001 -0.000000 -0.000001 0.000000 0.000000 -0.000001 0.000000 0.000000 -0.000001 0.000000 0.000000 
0.499179 61.568954 -13.096100 11.362519 -2.641306 -0.887291 0.000000 0.000000 0.000000 -45.583163 -3.390421 3.447810 95.341757 -9.867849 -0.546400 -1.211092 -6.949876 -12.010363 -0.000002 0.000001 0.000001 -0.000001 -0.000001 -0.000000 -55.719123 0.263364 6.780690 54.568628 -1.429264 -3.340622 -10.199159 -0.337970 0.266856 -0.000000 -0.000000 -0.000000 -0.000002 0.000000 -0.000000 3.508856 -1.361139 3.122305 3.732044 -18.570789 2.661325 3.866927 -8.169253 4.934672 7.120012 6.413221 -4.570411 -9.647850 23.069889 4.241988 0.000002 0.000000 0.000000 0.000002 0.000000 0.000000 0.000002 0.000000 0.000000 0.000002 0.000000 -0.000001 0.000000 -0.000000 -0.000001 0.000002 0.000000 -0.000001 0.000000 -0.000000 -0.000001 0.000002 0.000000 0.000000 0.000002 0.000000 0.000000 4.911174 6.264914 -10.786668 -49.841557 -26.839379 -50.349972 -0.001990 -87.379498 -0.002073 -60.218295 26.540992 40.991858 -14.557469 10.837958 12.229957 0.749532 -4.257958 13.305485 -0.000001 0.000000 -0.000004 -0.809533 2.578177 -31.496434 3.095883 5.163759 -61.866972 0.000002 0.000001 -0.000000 -2.430846 1.729232 -41.460928 2.952361 5.084717 -60.259925 -0.000001 0.000000 0.000001 -6.054129 -0.166609 -49.857574 3.046249 5.137037 -61.313952 -0.000002 0.000001 0.000000 -8.298304 -6.522636 -38.520160 2.848774 5.024383 -59.084408 -0.000000 0.000000 0.000001 -0.000002 -0.000001 -0.000001 -16.186976 16.902857 -1.232675 92.585209 129.657044 -70.757543 0.000004 43.375816 -0.000006 -51.989610 -14.032352 -39.841310 8.377135 -4.904149 11.021984 21.620209 -18.183912 -18.379223 0.000000 0.000001 0.000001 0.558932 -4.406601 25.436663 1.653027 -3.560339 49.799080 -0.000000 0.000000 0.000002 10.969827 -12.875590 52.800808 6.387593 -4.324405 111.833679 -0.000001 0.000002 -0.000001 3.705083 -7.151297 57.622440 5.328201 -4.608677 98.293450 0.000001 -0.000000 -0.000003 0.474825 -5.172994 58.987658 3.194316 -4.421948 71.674175 0.000001 -0.000000 0.000000 0.000001 0.000000 0.000001 0.000001 -0.000003 0.000002 0.000001 0.000002 -0.000000 0.000001 -0.000003 0.000002 0.000001 -0.000003 0.000002 0.000001 -0.000003 0.000002 0.000001 0.000002 -0.000000 0.000001 -0.000003 0.000002 0.000001 -0.000003 0.000002 0.000001 -0.000003 0.000002 0.000001 0.000002 -0.000000 0.000000 0.000000 0.000000 0.000000 0.000000 0.000000 0.000000 0.000000 0.000000 
0.763832 63.145195 -20.977570 11.679461 -3.459660 -1.202275 0.000001 0.000000 0.000000 -39.031382 -1.703449 2.672417 89.742272 -9.851745 -0.471530 -1.406957 -6.468622 -11.410377 0.000001 -0.000001 0.000000 -0.000002 0.000000 -0.000000 -53.302185 0.228885 6.597662 33.790448 1.439682 -3.493047 8.595010 -0.287554 2.227502 -0.000000 -0.000000 0.000000 -0.000001 -0.000000 0.000001 3.567566 -2.856419 2.744103 3.929776 -19.157709 2.932879 4.008652 -8.783110 5.196232 6.937123 7.035607 -3.934105 -9.102714 25.782106 4.033446 -0.000003 -0.000000 -0.000001 -0.000003 -0.000000 -0.000001 -0.000003 -0.000000 -0.000000 -0.000003 -0.000000 -0.000001 -0.000003 -0.000000 0.000000 -0.000003 -0.000000 -0.000001 -0.000003 -0.000000 0.000000 -0.000003 -0.000000 -0.000001 -0.000003 -0.000000 -0.000001 5.499132 6.472303 -10.463413 -47.503529 -23.844831 -50.359115 0.029938 -90.435509 0.029918 -58.067058 26.545969 41.307273 -14.557467 10.837960 12.229954 0.749531 -4.257956 13.305483 -0.000000 -0.000001 -0.000004 -0.809535 2.578178 -31.496437 3.095882 5.163760 -61.866972 0.000002 0.000001 -0.000002 -2.430847 1.729231 -41.460932 2.952361 5.084718 -60.259931 0.000001 -0.000000 0.000002 -6.054129 -0.166610 -49.857581 3.046248 5.137038 -61.313952 -0.000001 -0.000001 -0.000002 -8.298307 -6.522638 -38.520156 2.848775 5.024383 -59.084408 -0.000000 0.000000 0.000003 0.000002 -0.000001 -0.000000 -17.297671 21.550510 1.150089 102.161489 124.884627 -79.349852 -0.000005 49.169135 0.000008 -54.893284 -13.397419 -42.948967 8.377134 -4.904150 11.021981 21.620204 -18.183905 -18.379223 -0.000001 -0.000001 -0.000000 0.558934 -4.406600 25.436669 1.653027 -3.560339 49.799077 0.000000 -0.000000 0.000000 10.969827 -12.875584 52.800812 6.387592 -4.324410 111.833686 -0.000001 -0.000003 0.000004 3.705082 -7.151297 57.622433 5.328198 -4.608678 98.293457 -0.000001 -0.000002 0.000006 0.474826 -5.172995 58.987658 3.194315 -4.421947 71.674175 -0.000001 0.000001 0.000002 0.000004 -0.000001 0.000000 -0.000000 0.000004 -0.000002 -0.000000 0.000001 -0.000001 -0.000000 0.000004 -0.000002 -0.000000 0.000004 -0.000002 -0.000000 0.000004 -0.000002 -0.000000 0.000001 -0.000001 -0.000000 0.000004 -0.000002 -0.000000 0.000004 -0.000002 -0.000000 0.000004 -0.000002 -0.000000 0.000001 -0.000001 0.000001 0.000000 0.000000 0.000001 0.000000 0.000000 0.000001 0.000000 0.000000 
